<svg version="1.2" xmlns="http://www.w3.org/2000/svg" viewBox="0 0 900 900" width="900" height="900">
	<style>
		.s0 { fill: #339966 } 
	</style>
	<g>
		<path class="s0" d="m316.61 181.29c-32.66 16.18-61.14 37.67-84.91 62.92 11.84 0.23 23.75-0.3 35.66-1.64 13.76-22.17 30.24-42.78 49.25-61.28zm28.15-12.21c25.36-1.2 50.57 0.53 75.13 5.15 8.47-7.6 16.39-15.72 23.77-24.21-33.05 0.67-66.42 6.86-98.9 19.06zm-15.58 27.53c-13.1 12.89-24.89 26.86-35.33 41.69 15.84-3.38 31.58-8.26 47.07-14.62zm18.37-7.91l11.62 26.78c14.25-7.09 27.61-15.33 40.07-24.47-17.02-2.21-34.31-3.02-51.69-2.31zm121.49-38.12c-7.87 10.16-16.42 19.86-25.65 28.98 45.24 12.04 87.58 33.79 123.72 63.92 13.41-16.23 25.54-33.38 36.35-51.26-40.7-24.18-86.84-38.55-134.42-41.64zm-254.01 112.84c-29.58 37.34-49.82 81.15-59.18 127.59 20.75 4.01 41.84 6.53 63.11 7.44 2.11-47.13 14.71-93.16 36.39-134.73-13.5 0.84-26.98 0.72-40.32-0.3zm210.67-67.8c-17.61 14.75-37.19 27.59-58.6 38.15l53.6 123.56c51.96-24.63 96.81-58.53 133.39-98.8-37.17-30.98-81.34-52.5-128.39-62.91zm-146.5 65.59c-24.19 41.85-38.19 89.08-40.38 137.62 54.66-0.23 110.15-10.96 163.61-33.36l-53.55-123.45c-22.85 9.42-46.23 15.78-69.68 19.19zm341.09-58.17c-11.37 18.75-24.14 36.71-38.23 53.71 30.29 28.66 55.37 63.71 72.96 104.27q5.46 12.57 9.76 25.33c20.22-20.81 38.79-42.93 55.62-66.23-23.34-48.68-58.31-88.32-100.11-117.08zm-467.75 207.67c-6.69 50.22-0.74 102.72 19.74 152.76 28.52 3.13 57.37 4.26 86.35 3.22q-7.45-13.43-13.69-27.79c-17.02-39.24-25.48-80.08-26.23-120.45-22.3-0.93-44.42-3.56-66.17-7.74zm416.42-138.94c-38.45 42.41-85.62 78.08-140.3 103.91l59 136.01c60.97-28.2 114.99-65.44 161.17-109.5q-5.03-16.76-12.16-33.21c-16.38-37.77-39.65-70.44-67.71-97.21zm-330.42 147c0.83 37.6 8.83 75.62 24.69 112.2 5.22 12.03 11.14 23.52 17.69 34.49 63.29-4.67 126.85-19.57 188.46-45.64l-58.99-136.01c-56.11 23.55-114.42 34.8-171.85 34.96zm490.98-77.6c-17.7 23.57-37.14 45.98-58.28 66.97 13.81 53.4 13.05 108.15-0.25 159.46 26-18.82 50.57-39.12 73.56-60.8 10.46-53.88 6.23-111.13-15.03-165.63zm-547.72 243.31c26.13 52.2 65.82 93.71 112.85 122.11 30.96-2.48 61.94-6.92 92.83-13.42-46.59-24.81-87.22-61.11-117.15-107.04-29.67 1.6-59.26 1.01-88.53-1.65zm472.75-160.31c-46.03 42.38-99.25 78.38-158.91 105.92l48.33 111.41c35.56-16.24 69.26-34.87 100.95-55.78q0.01-0.04 0.03-0.08c17.6-51.05 21.57-106.82 9.6-161.47zm-361.29 160.33c32.04 45.41 75.56 80.01 124.78 101.54 36.23-9.24 72.18-21.39 107.63-36.46l-48.33-111.41c-60.17 25.48-122.2 40.67-184.08 46.33zm442.25-42.64c-23.37 20.32-48.11 39.36-74.23 56.93-16.59 44.8-43.15 85.98-78.13 120 75.09-37.12 128.25-102.14 152.36-176.93zm-408.99 181.5c70.12 31.63 152.1 36.35 228.88 7.47-47.9 2.28-95.23-6.09-138.66-23.92-29.97 7.37-60.09 12.82-90.22 16.45zm305.27-105.71c-25.47 15.47-52.09 29.6-79.84 42.26l18.8 43.34c25.42-25.01 45.97-54.06 61.04-85.6zm-181.73 80.32c32.78 10.14 67.4 14.75 102.37 13.3l-18.8-43.35c-27.6 11.74-55.47 21.77-83.57 30.05z"/>
	</g>
</svg>